<?xml version="1.0" encoding="UTF-8" standalone="no"?>
<!DOCTYPE svg PUBLIC "-//W3C//DTD SVG 1.1//EN" "http://www.w3.org/Graphics/SVG/1.1/DTD/svg11.dtd">
<svg viewBox="0 0 144 144" version="1.1" xmlns="http://www.w3.org/2000/svg" xmlns:xlink="http://www.w3.org/1999/xlink" xml:space="preserve" style="fill-rule:evenodd;clip-rule:evenodd;stroke-linejoin:round;stroke-miterlimit:1.41421;"><g transform="matrix(0.24,0,0,0.24,-372,-392.16)"><g id="octagon-icinga_master" transform="matrix(1,0,0,1,-0.236696,-0.39877)"><rect x="1550.24" y="1634.4" width="596" height="596" style="fill:none;"/><g transform="matrix(1,0,0,1,0.236696,0.39877)"><circle cx="1848" cy="1932" r="298" style="fill:#0f95c0;"/></g><g transform="matrix(1.35636,0,0,1.35636,-674.216,-637.114)"><g id="icinga-master"><path d="M1892.3,1797.84c-3.6,-1.75 -6.885,-4.294 -9.579,-7.602c-9.929,-12.163 -8.091,-30.063 4.067,-39.979c12.158,-9.909 30.067,-8.084 39.992,4.079c9.904,12.162 8.079,30.067 -4.075,39.987c-7.707,6.264 -17.709,7.835 -26.524,5.059l-26.598,55.27c6.437,3.332 12.312,8.007 17.184,13.98c6.029,7.4 9.795,15.91 11.384,24.689l90.649,-22.357c-0.561,-1.697 -0.926,-3.49 -1.066,-5.353c-0.925,-12.288 8.291,-23.017 20.591,-23.942c12.292,-0.925 23.013,8.296 23.942,20.6c0.921,12.292 -8.296,23.013 -20.596,23.934c-8.945,0.672 -17.054,-4.024 -21.166,-11.368l-91.767,22.633c1.816,17.671 -5.01,35.891 -19.796,47.96c-1.378,1.12 -2.794,2.162 -4.243,3.126l19.214,32.097c1.315,-0.335 2.713,-0.442 4.142,-0.278c6.279,0.73 10.775,6.413 10.05,12.684c-0.738,6.283 -6.405,10.775 -12.684,10.058c-6.279,-0.729 -10.779,-6.404 -10.05,-12.687c0.386,-3.354 2.187,-6.201 4.741,-8.015l-18.967,-31.683c-16.262,9.118 -35.878,9.149 -51.953,0.772l-33.748,48.395c6.385,6.066 10.624,14.432 11.331,23.906c1.521,20.254 -13.658,37.916 -33.916,39.437c-20.263,1.521 -37.917,-13.662 -39.434,-33.929c-1.525,-20.246 13.659,-37.9 33.93,-39.421c9.277,-0.704 18.01,2.103 24.896,7.301l33.309,-47.765c-4.965,-3.097 -9.512,-7.053 -13.414,-11.844c-16.715,-20.474 -16.068,-49.42 0.072,-69.077l-28.805,-23.582c-1.327,1.433 -2.936,2.649 -4.796,3.559c-8.092,3.962 -17.85,0.608 -21.808,-7.479c-3.954,-8.075 -0.6,-17.838 7.483,-21.8c8.083,-3.959 17.846,-0.609 21.804,7.475c2.384,4.885 2.11,10.382 -0.264,14.841l29.153,23.867c1.543,-1.61 3.201,-3.143 4.974,-4.588c16.235,-13.231 37.808,-15.571 55.853,-7.919l26.488,-55.041Z" style="fill:#fff;"/></g></g></g></g></svg>